<svg width="24" height="24" viewBox="0 0 24 24" fill="none" xmlns="http://www.w3.org/2000/svg">
<path opacity="0.4" d="M11.791 14.21L8.52098 17.48C8.16098 17.16 7.81098 16.83 7.47098 16.49C6.44098 15.45 5.51098 14.36 4.68098 13.22C3.86098 12.08 3.20098 10.94 2.72098 9.81C2.24098 8.67 2.00098 7.58 2.00098 6.54C2.00098 5.86 2.12098 5.21 2.36098 4.61C2.60098 4 2.98098 3.44 3.51098 2.94C4.15098 2.31 4.85098 2 5.59098 2C5.87098 2 6.15098 2.06 6.40098 2.18C6.66098 2.3 6.89098 2.48 7.07098 2.74L9.39098 6.01C9.57098 6.26 9.70098 6.49 9.79098 6.71C9.88098 6.92 9.93098 7.13 9.93098 7.32C9.93098 7.56 9.86098 7.8 9.72098 8.03C9.59098 8.26 9.40098 8.5 9.16098 8.74L8.40098 9.53C8.29098 9.64 8.24098 9.77 8.24098 9.93C8.24098 10.01 8.25098 10.08 8.27098 10.16C8.30098 10.24 8.33098 10.3 8.35098 10.36C8.53098 10.69 8.84098 11.12 9.28098 11.64C9.73098 12.16 10.211 12.69 10.731 13.22C11.091 13.57 11.441 13.91 11.791 14.21Z" fill="#171717"/>
<path d="M21.9711 18.33C21.9711 18.61 21.9211 18.9 21.8211 19.18C21.7911 19.26 21.7611 19.34 21.7211 19.42C21.5511 19.78 21.3311 20.12 21.0411 20.44C20.5511 20.98 20.0111 21.37 19.4011 21.62C19.3911 21.62 19.3811 21.63 19.3711 21.63C18.7811 21.87 18.1411 22 17.4511 22C16.4311 22 15.3411 21.76 14.1911 21.27C13.0411 20.78 11.8911 20.12 10.7511 19.29C10.3611 19 9.97107 18.71 9.60107 18.4L12.8711 15.13C13.1511 15.34 13.4011 15.5 13.6111 15.61C13.6611 15.63 13.7211 15.66 13.7911 15.69C13.8711 15.72 13.9511 15.73 14.0411 15.73C14.2111 15.73 14.3411 15.67 14.4511 15.56L15.2111 14.81C15.4611 14.56 15.7011 14.37 15.9311 14.25C16.1611 14.11 16.3911 14.04 16.6411 14.04C16.8311 14.04 17.0311 14.08 17.2511 14.17C17.4711 14.26 17.7011 14.39 17.9511 14.56L21.2611 16.91C21.5211 17.09 21.7011 17.3 21.8111 17.55C21.9111 17.8 21.9711 18.05 21.9711 18.33Z" fill="#171717"/>
</svg>
